<?xml version="1.0" encoding="utf-8"?>
<!-- Generator: Adobe Illustrator 19.2.0, SVG Export Plug-In . SVG Version: 6.00 Build 0)  -->
<svg version="1.1" id="Layer_1" xmlns="http://www.w3.org/2000/svg" xmlns:xlink="http://www.w3.org/1999/xlink" x="0px" y="0px"
	 viewBox="0 0 75 75" style="enable-background:new 0 0 75 75;" xml:space="preserve">
<style type="text/css">
	.st0{fill:#2E85F2;}
	.st1{fill:#FFFFFF;}
</style>
<path class="st0" d="M35,73.3L7.5,57.5C6,56.6,5,54.9,5,53.1V21.4c0-1.8,1-3.4,2.5-4.3L35,1.2c1.5-0.9,3.5-0.9,5,0l27.5,15.9
	C69,18,70,19.6,70,21.4v31.7c0,1.8-1,3.4-2.5,4.3L40,73.3C38.5,74.2,36.5,74.2,35,73.3z"/>
<title>digitalocean</title>
<g id="_Group_">
	<g id="_Group_2">
		<g id="_Group_3">
			<g id="_Group_4">
				<g id="_Group_5">
					<path id="_Path_" class="st1" d="M37.5,52.1v-5.8c5.1,0,9.2-4.1,9.2-9.1c0-1.1-0.2-2.3-0.6-3.3c-0.9-2.4-2.8-4.3-5.2-5.1
						c-4.7-1.8-10,0.5-11.9,5.2c-0.4,1-0.6,2.2-0.6,3.3h-5.8c0.1-8.3,6.8-14.9,15.1-14.9c1.5,0,3.1,0.3,4.5,0.7
						c4.5,1.4,8,4.9,9.4,9.4c2.6,7.8-1.7,16.3-9.5,18.9C40.7,51.9,39.1,52.1,37.5,52.1z"/>
				</g>
				<polygon id="_Path_2" class="st1" points="37.5,46.4 31.7,46.4 31.7,40.6 31.7,40.6 37.5,40.6 37.5,40.6 				"/>
				<polygon id="_Path_3" class="st1" points="31.7,50.8 27.3,50.8 27.3,50.8 27.3,46.4 31.7,46.4 31.7,50.8 				"/>
				<polygon id="_Path_4" class="st1" points="27.3,46.4 23.6,46.4 23.6,46.4 23.6,42.7 23.6,42.7 27.3,42.7 27.3,42.7 				"/>
			</g>
		</g>
	</g>
</g>
</svg>
