<svg id="Layer_1" data-name="Layer 1" xmlns="http://www.w3.org/2000/svg" viewBox="0 0 90 75">
  <defs>
    <style>
      .cls-1 {
        fill: #2e85f2;
      }

      .cls-2, .cls-3 {
        fill: #fff;
      }

      .cls-3 {
        fill-rule: evenodd;
      }
    </style>
  </defs>
  <title>digitalocean</title>
  <rect class="cls-1" width="90" height="75"/>
  <g id="_Group_" data-name="&lt;Group&gt;">
    <g id="_Group_2" data-name="&lt;Group&gt;">
      <g id="_Group_3" data-name="&lt;Group&gt;">
        <g id="_Group_4" data-name="&lt;Group&gt;">
          <g id="_Group_5" data-name="&lt;Group&gt;">
            <path id="_Path_" data-name="&lt;Path&gt;" class="cls-2" d="M266,414.93v-5.76a9.15,9.15,0,0,0,8.53-12.47,8.64,8.64,0,0,0-5.16-5.14,9.18,9.18,0,0,0-12.51,8.5h-5.78a15,15,0,0,1,19.67-14.13,14.4,14.4,0,0,1,9.42,9.39A14.92,14.92,0,0,1,266,414.93Z" transform="translate(-221 -370)"/>
          </g>
          <polygon id="_Path_2" data-name="&lt;Path&gt;" class="cls-3" points="45.01 39.19 39.25 39.19 39.25 33.45 39.25 33.45 45.01 33.45 45.01 33.45 45.01 39.19"/>
          <polygon id="_Path_3" data-name="&lt;Path&gt;" class="cls-3" points="39.25 43.6 34.83 43.6 34.83 43.6 34.83 39.19 39.25 39.19 39.25 43.6 39.25 43.6"/>
          <polygon id="_Path_4" data-name="&lt;Path&gt;" class="cls-3" points="34.83 39.19 31.12 39.19 31.12 39.19 31.12 35.49 31.12 35.49 34.83 35.49 34.83 35.49 34.83 39.19"/>
        </g>
      </g>
    </g>
    <g id="_Group_6" data-name="&lt;Group&gt;">
      <path id="_Compound_Path_" data-name="&lt;Compound Path&gt;" class="cls-2" d="M241.34,420.75a4.79,4.79,0,0,0-2.78-.78h-2.38v7.51h2.38a4.62,4.62,0,0,0,2.78-.83,2.86,2.86,0,0,0,1-1.2,4.37,4.37,0,0,0,.34-1.78,4.26,4.26,0,0,0-.34-1.75A2.73,2.73,0,0,0,241.34,420.75Zm-3.77.49h0.75a3.83,3.83,0,0,1,2,.48,2.1,2.1,0,0,1,.87,2,2.26,2.26,0,0,1-.87,2h0a3.64,3.64,0,0,1-2,.49h-0.76v-5Z" transform="translate(-221 -370)"/>
      <path id="_Path_5" data-name="&lt;Path&gt;" class="cls-2" d="M244.29,419.88a0.8,0.8,0,0,0-.58.24,0.76,0.76,0,0,0-.24.57,0.83,0.83,0,0,0,1.65,0,0.76,0.76,0,0,0-.24-0.57A0.8,0.8,0,0,0,244.29,419.88Z" transform="translate(-221 -370)"/>
      <rect id="_Path_6" data-name="&lt;Path&gt;" class="cls-2" x="22.61" y="52.19" width="1.34" height="5.29"/>
      <path id="_Compound_Path_2" data-name="&lt;Compound Path&gt;" class="cls-2" d="M249.8,422.64a2,2,0,0,0-1.34-.57,2.4,2.4,0,0,0-1.82.76,2.64,2.64,0,0,0-.72,1.9,2.7,2.7,0,0,0,.71,1.9,2.44,2.44,0,0,0,1.83.75,2.08,2.08,0,0,0,1.32-.43v0.12a1.39,1.39,0,0,1-.35,1,1.29,1.29,0,0,1-1,.35,1.69,1.69,0,0,1-1.47-.88l-0.91.87,0,0a3.24,3.24,0,0,0,.9.8,2.71,2.71,0,0,0,1.49.38,2.57,2.57,0,0,0,1.91-.72,2.63,2.63,0,0,0,.72-1.92v-4.81H249.8v0.44Zm-0.35,3.13a1.15,1.15,0,0,1-.92.39,1.14,1.14,0,0,1-.91-0.39,1.52,1.52,0,0,1-.35-1,1.55,1.55,0,0,1,.35-1,1.26,1.26,0,0,1,1.83,0,1.53,1.53,0,0,1,.35,1A1.51,1.51,0,0,1,249.45,425.76Z" transform="translate(-221 -370)"/>
      <rect id="_Path_7" data-name="&lt;Path&gt;" class="cls-2" x="31.26" y="52.19" width="1.34" height="5.29"/>
      <path id="_Path_8" data-name="&lt;Path&gt;" class="cls-2" d="M252.94,419.88a0.8,0.8,0,0,0-.58.24,0.76,0.76,0,0,0-.24.57,0.83,0.83,0,0,0,1.65,0,0.76,0.76,0,0,0-.24-0.57A0.8,0.8,0,0,0,252.94,419.88Z" transform="translate(-221 -370)"/>
      <path id="_Path_9" data-name="&lt;Path&gt;" class="cls-2" d="M256.53,420.76h-1.32v1.43h-0.76v1.21h0.76v2.2a2.09,2.09,0,0,0,.41,1.46,2,2,0,0,0,1.44.43l0.65,0h0.06v-1.21l-0.46,0a0.88,0.88,0,0,1-.63-0.17,1.1,1.1,0,0,1-.15-0.7v-2h1.24v-1.21h-1.24v-1.43Z" transform="translate(-221 -370)"/>
      <rect id="_Path_10" data-name="&lt;Path&gt;" class="cls-2" x="43.04" y="49.97" width="1.34" height="7.51"/>
      <path id="_Path_11" data-name="&lt;Path&gt;" class="cls-2" d="M278.88,425.59a3.75,3.75,0,0,1-.67.62h0a1.27,1.27,0,0,1-.69.18,1.22,1.22,0,0,1-1-.44,1.82,1.82,0,0,1,0-2.23,1.21,1.21,0,0,1,1-.43,1.77,1.77,0,0,1,1.27.72l0.88-.84h0a2.63,2.63,0,0,0-2.19-1.09,2.58,2.58,0,0,0-1.89.79,2.89,2.89,0,0,0,0,4,2.57,2.57,0,0,0,1.89.79,2.65,2.65,0,0,0,2.28-1.18Z" transform="translate(-221 -370)"/>
      <path id="_Compound_Path_3" data-name="&lt;Compound Path&gt;" class="cls-2" d="M284.37,422.93a2,2,0,0,0-.77-0.63,2.51,2.51,0,0,0-1.1-.23,2.27,2.27,0,0,0-1.82.82,3,3,0,0,0-.67,2,2.74,2.74,0,0,0,.74,2,2.57,2.57,0,0,0,1.93.76,2.66,2.66,0,0,0,2.2-1.08l0,0-0.87-.83h0a3.79,3.79,0,0,1-.3.31,1.65,1.65,0,0,1-.39.29,1.49,1.49,0,0,1-.67.15,1.3,1.3,0,0,1-.91-0.32,1.22,1.22,0,0,1-.38-0.8h3.54v-0.49a3.43,3.43,0,0,0-.14-1A2.87,2.87,0,0,0,284.37,422.93Zm-2.92,1.25a1.31,1.31,0,0,1,.35-0.63,1,1,0,0,1,.7-0.27,1,1,0,0,1,.75.27,1,1,0,0,1,.27.62h-2.06Z" transform="translate(-221 -370)"/>
      <path id="_Compound_Path_4" data-name="&lt;Compound Path&gt;" class="cls-2" d="M289.5,422.59h0a2.5,2.5,0,0,0-1.66-.52,2.72,2.72,0,0,0-1.24.29,2.19,2.19,0,0,0-.91.85v0l0.86,0.82a1.38,1.38,0,0,1,1.26-.75,1.05,1.05,0,0,1,.69.22,0.69,0.69,0,0,1,.26.57v0.26a3.39,3.39,0,0,0-1-.15,2.59,2.59,0,0,0-1.61.46,1.58,1.58,0,0,0-.61,1.32,1.52,1.52,0,0,0,.52,1.2,2,2,0,0,0,1.29.44,2.25,2.25,0,0,0,1.42-.55v0.44h1.32v-3.4A1.86,1.86,0,0,0,289.5,422.59Zm-2.37,2.87a1.11,1.11,0,0,1,.64-0.16,3,3,0,0,1,1,.19V426a1.64,1.64,0,0,1-1.15.41,0.83,0.83,0,0,1-.53-0.15,0.47,0.47,0,0,1-.18-0.38A0.48,0.48,0,0,1,287.13,425.46Z" transform="translate(-221 -370)"/>
      <path id="_Path_12" data-name="&lt;Path&gt;" class="cls-2" d="M295.26,422.69a2,2,0,0,0-1.56-.62,1.82,1.82,0,0,0-1.28.45v-0.33h-1.31v5.29h1.34v-2.92a1.44,1.44,0,0,1,.28-0.95,1,1,0,0,1,.79-0.34,0.86,0.86,0,0,1,.7.3,1.26,1.26,0,0,1,.26.83v3.07h1.34v-3.07A2.5,2.5,0,0,0,295.26,422.69Z" transform="translate(-221 -370)"/>
      <path id="_Compound_Path_5" data-name="&lt;Compound Path&gt;" class="cls-2" d="M262.36,422.59h0a2.5,2.5,0,0,0-1.66-.52,2.72,2.72,0,0,0-1.24.29,2.19,2.19,0,0,0-.91.85v0l0.86,0.82a1.38,1.38,0,0,1,1.26-.75,1.05,1.05,0,0,1,.69.22,0.69,0.69,0,0,1,.26.57v0.26a3.39,3.39,0,0,0-1-.15,2.59,2.59,0,0,0-1.61.46,1.58,1.58,0,0,0-.61,1.32,1.52,1.52,0,0,0,.52,1.2,2,2,0,0,0,1.29.44,2.25,2.25,0,0,0,1.42-.55v0.44H263v-3.4A1.86,1.86,0,0,0,262.36,422.59ZM260,425.46a1.11,1.11,0,0,1,.64-0.16,3,3,0,0,1,1,.19V426a1.64,1.64,0,0,1-1.15.41,0.83,0.83,0,0,1-.53-0.15,0.47,0.47,0,0,1-.18-0.38A0.48,0.48,0,0,1,260,425.46Z" transform="translate(-221 -370)"/>
      <path id="_Compound_Path_6" data-name="&lt;Compound Path&gt;" class="cls-2" d="M270.23,427.6a3.87,3.87,0,1,1,3.89-3.87A3.88,3.88,0,0,1,270.23,427.6Zm0-6.38a2.51,2.51,0,1,0,2.52,2.51A2.52,2.52,0,0,0,270.23,421.22Z" transform="translate(-221 -370)"/>
    </g>
  </g>
</svg>
