<svg id="Layer_1" data-name="Layer 1" xmlns="http://www.w3.org/2000/svg" viewBox="0 0 164 164">
  <defs>
    <style>
      .cls-1, .cls-12 {
        fill: #dd8b28;
      }

      .cls-10, .cls-2 {
        fill: #59ae44;
      }

      .cls-11, .cls-3 {
        fill: #9233b5;
      }

      .cls-4, .cls-9 {
        fill: #2e85f2;
      }

      .cls-5, .cls-6, .cls-7, .cls-8 {
        fill: #fff;
      }

      .cls-6 {
        font-size: 38.19px;
        font-weight: 700;
      }

      .cls-6, .cls-7 {
        font-family: Libre Franklin;
      }

      .cls-7 {
        font-size: 66.85px;
      }

      .cls-8 {
        fill-rule: evenodd;
      }

      .cls-9 {
        stroke: #266ebc;
      }

      .cls-10, .cls-11, .cls-12, .cls-9 {
        stroke-miterlimit: 10;
        stroke-width: 3px;
      }

      .cls-10 {
        stroke: #417a31;
      }

      .cls-11 {
        stroke: #65257f;
      }

      .cls-12 {
        stroke: #a86720;
      }
    </style>
  </defs>
  <title>features</title>
  <path class="cls-1" d="M107.37,82.71l27.48-15.86a5,5,0,0,0,2.5-4.33V30.79a5,5,0,0,0-2.5-4.33L107.37,10.6a5,5,0,0,0-5,0L74.9,26.46a5,5,0,0,0-2.5,4.33V62.52a5,5,0,0,0,2.5,4.33l27.48,15.86A5,5,0,0,0,107.37,82.71Z"/>
  <path class="cls-2" d="M63.6,154.94l33.89-19.31a5.89,5.89,0,0,0,3-5.18L100,92.79a5.89,5.89,0,0,0-3.18-5.1L62.41,69.33a6.47,6.47,0,0,0-6.21.09L22.31,88.73a5.89,5.89,0,0,0-3,5.18l0.52,37.66a5.89,5.89,0,0,0,3.18,5.1L57.39,155A6.47,6.47,0,0,0,63.6,154.94Z"/>
  <path class="cls-3" d="M130.94,131.07l18.91-11.4a3.63,3.63,0,0,0,1.72-3.11V93.76a3.63,3.63,0,0,0-1.72-3.11l-18.91-11.4a3.31,3.31,0,0,0-3.44,0l-18.91,11.4a3.63,3.63,0,0,0-1.72,3.11v22.8a3.63,3.63,0,0,0,1.72,3.11l18.91,11.4A3.31,3.31,0,0,0,130.94,131.07Z"/>
  <path class="cls-4" d="M40.69,70.36L62.48,57.78A5,5,0,0,0,65,53.45V28.29A5,5,0,0,0,62.48,24L40.69,11.38a5,5,0,0,0-5,0L13.91,24a5,5,0,0,0-2.5,4.33V53.45a5,5,0,0,0,2.5,4.33L35.69,70.36A5,5,0,0,0,40.69,70.36Z"/>
  <g id="_Group_" data-name=" Group ">
    <g id="_Group_2" data-name=" Group 2">
      <g id="_Group_3" data-name=" Group 3">
        <g id="_Group_4" data-name=" Group 4">
          <g id="_Group_5" data-name=" Group 5">
            <path id="_Path_" data-name=" Path " class="cls-5" d="M38.2,57.46V51.18A10,10,0,0,0,47.49,37.6,9.41,9.41,0,0,0,41.87,32a10,10,0,0,0-13.63,9.26h-6.3A16.34,16.34,0,0,1,43.37,25.86,15.69,15.69,0,0,1,53.64,36.09,16.25,16.25,0,0,1,38.2,57.46Z"/>
          </g>
          <polygon id="_Path_2" data-name=" Path 2" class="cls-5" points="38.21 51.2 31.93 51.2 31.93 44.95 31.93 44.95 38.21 44.95 38.21 44.95 38.21 51.2"/>
          <polygon id="_Path_3" data-name=" Path 3" class="cls-5" points="31.93 56.01 27.12 56.01 27.12 56.01 27.12 51.2 31.93 51.2 31.93 56.01 31.93 56.01"/>
          <polygon id="_Path_4" data-name=" Path 4" class="cls-5" points="27.12 51.2 23.08 51.2 23.08 51.2 23.08 47.17 23.08 47.17 27.12 47.17 27.12 47.17 27.12 51.2"/>
        </g>
      </g>
    </g>
  </g>
  <text class="cls-6" transform="translate(32.35 125.37)">$ _</text>
  <text class="cls-7" transform="translate(86.02 71.63)">+</text>
  <path class="cls-8" d="M129.33,91.44a14.28,14.28,0,0,0-4.51,27.82,0.72,0.72,0,0,0,1-.69c0-.34,0-1.24,0-2.43-4,.86-4.81-1.91-4.81-1.91a3.78,3.78,0,0,0-1.58-2.09c-1.3-.89.1-0.87,0.1-0.87a3,3,0,0,1,2.19,1.47,3,3,0,0,0,4.15,1.19,3.05,3.05,0,0,1,.91-1.91c-3.17-.36-6.5-1.58-6.5-7.06a5.52,5.52,0,0,1,1.47-3.83,5.13,5.13,0,0,1,.14-3.78s1.2-.38,3.93,1.46a13.53,13.53,0,0,1,7.15,0c2.73-1.85,3.92-1.46,3.92-1.46a5.13,5.13,0,0,1,.14,3.78,5.51,5.51,0,0,1,1.47,3.83c0,5.48-3.34,6.69-6.52,7a3.41,3.41,0,0,1,1,2.64c0,1.91,0,3.45,0,3.92a0.71,0.71,0,0,0,1,.69A14.28,14.28,0,0,0,129.33,91.44Z"/>
  <line class="cls-9" x1="11.41" y1="39.55" y2="39.55"/>
  <line class="cls-10" x1="19.27" y1="112.62" y2="112.62"/>
  <line class="cls-11" x1="151.56" y1="105.36" x2="164" y2="105.36"/>
  <line class="cls-12" x1="137.35" y1="47.36" x2="164" y2="47.36"/>
</svg>
