<svg width="15" height="14" viewBox="0 0 15 14" version="1.1" xmlns="http://www.w3.org/2000/svg" xmlns:xlink="http://www.w3.org/1999/xlink" xmlns:figma="http://www.figma.com/figma/ns">
<title>Logo</title>
<desc>Created using Figma</desc>
<g id="Canvas" transform="translate(201 116)" figma:type="canvas">
<g id="Logo" style="mix-blend-mode:normal;" figma:type="frame">
<g id="Rectangle 2" style="mix-blend-mode:normal;" figma:type="rounded-rectangle">
<use xlink:href="#path0_fill" transform="translate(-196 -112)" style="mix-blend-mode:normal;"/>
</g>
<g id="Rectangle 2" style="mix-blend-mode:normal;" figma:type="rounded-rectangle">
<use xlink:href="#path1_fill" transform="translate(-193 -116)" style="mix-blend-mode:normal;"/>
</g>
<g id="Rectangle 2" style="mix-blend-mode:normal;" figma:type="rounded-rectangle">
<use xlink:href="#path2_fill" transform="translate(-201 -109)" style="mix-blend-mode:normal;"/>
</g>
<g id="Rectangle 2" style="mix-blend-mode:normal;" figma:type="rounded-rectangle">
<use xlink:href="#path3_fill" transform="translate(-198 -114)" style="mix-blend-mode:normal;"/>
</g>
<g id="Vector" style="mix-blend-mode:normal;" figma:type="vector">
<use xlink:href="#path4_fill" transform="translate(-193 -109)" style="mix-blend-mode:normal;"/>
</g>
</g>
</g>
<defs>
<path id="path0_fill" d="M 0 0L 3 0L 3 3L 0 3L 0 0Z"/>
<path id="path1_fill" d="M 0 0L 4 0L 4 4L 0 4L 0 0Z"/>
<path id="path2_fill" d="M 0 0L 5 0L 5 5L 0 5L 0 0Z"/>
<path id="path3_fill" d="M 0 0L 2 0L 2 2L 0 2L 0 0Z"/>
<path id="path4_fill" d="M 0 0L 1.5 0L 7 5.5L 7 7L 5.5 7L 0 1.5L 0 0Z"/>
</defs>
</svg>
